<svg width="89" height="37" viewBox="0 0 89 37" fill="none" xmlns="http://www.w3.org/2000/svg">
<path d="M48.564 36.226C48.564 36.226 43.284 26.2968 35.748 31.2372C35.748 31.2372 26.052 24.9197 19.32 32.2761C19.32 32.2761 7.15199 26.6471 0.455994 33.1941C0.455994 33.1941 6.41999 14.5919 22.056 8.8421C22.056 8.8421 32.436 18.9525 38.388 16.9232L39.192 7.50128L43.332 14.3382L47.124 13.7101L47.844 6.77652C47.844 6.77652 51.2759 12.2968 51.2399 14.8697C51.2399 14.8697 57.4321 6.54702 58.5721 0C58.5721 0 77.2799 1.03882 88.5839 10.4486C88.5839 10.4486 73.7519 8.27436 72.8399 18.8921C72.8399 18.8921 61.548 16.8749 59.832 25.27C59.832 25.27 51.672 22.7213 48.564 36.226Z" fill="#202530"/>
</svg>
