<svg width="574" height="136" viewBox="0 0 574 136" fill="none" xmlns="http://www.w3.org/2000/svg">
<path d="M523.939 56.3011C525.108 60.0813 525.692 61.9714 526.862 65.7407C528.238 70.163 532.985 72.7215 537.468 71.4303C548.825 68.1614 554.472 66.4531 565.752 62.9149C570.207 61.5118 572.564 56.8111 571.045 52.4412C569.733 48.7025 569.083 46.8391 567.783 43.1015C566.252 38.7304 561.49 36.3236 557.126 37.7023C546.079 41.1746 540.536 42.8489 529.413 46.0519C525.022 47.3078 522.563 51.8897 523.939 56.3011ZM531.57 56.3935C530.845 54.1079 532.114 51.7331 534.389 51.0687C543.072 48.5367 547.404 47.2425 556.051 44.5433C558.318 43.8344 560.782 45.0893 561.559 47.3578C562.276 49.4569 562.635 50.5064 563.364 52.6066C564.142 54.8752 562.919 57.2979 560.615 58.0033C551.876 60.7269 547.493 62.0382 538.719 64.5946C536.418 65.2675 533.959 63.9476 533.233 61.6729C532.568 59.5676 532.235 58.5096 531.57 56.3935Z" fill="#67759C"/>
<path d="M467.062 70.7897C468.063 74.609 468.556 76.5235 469.557 80.3428C470.726 84.8115 475.351 87.5992 479.876 86.5305C491.359 83.8197 497.081 82.3916 508.5 79.4018C513.011 78.2224 515.583 73.6509 514.259 69.2225C513.129 65.4349 512.558 63.5351 511.428 59.7476C510.104 55.3192 505.451 52.6929 501.044 53.849C489.858 56.773 484.252 58.1682 473.003 60.824C468.556 61.8671 465.893 66.3209 467.062 70.7897ZM474.685 71.242C474.063 68.9331 475.44 66.6229 477.743 66.0704C486.525 63.9738 490.913 62.8816 499.66 60.6178C501.954 60.0207 504.357 61.3901 505.03 63.6928C505.656 65.8162 505.963 66.8828 506.589 69.0063C507.263 71.2981 505.919 73.6551 503.599 74.2606C494.749 76.5477 490.322 77.6473 481.436 79.778C479.107 80.339 476.71 78.9046 476.101 76.5969C475.539 74.4575 475.246 73.3813 474.685 71.242Z" fill="#67759C"/>
<path d="M504.458 70.58C516.588 67.4263 522.635 65.7658 534.682 62.2874C536.67 61.7168 537.772 59.6435 537.145 57.6621C536.518 55.6915 534.396 54.5558 532.408 55.1264C520.428 58.5781 514.419 60.2312 502.353 63.3691C500.358 63.8844 499.209 65.9205 499.784 67.9081C500.358 69.9066 502.449 71.105 504.458 70.58Z" fill="#566282"/>
<path d="M413.517 81.7824C414.35 85.6408 414.767 87.5701 415.6 91.4177C416.576 95.9232 421.069 98.9064 425.639 98.0386C437.225 95.851 443 94.6791 454.535 92.2136C459.091 91.2351 461.853 86.7905 460.723 82.3144C459.749 78.4866 459.268 76.5732 458.305 72.7466C457.175 68.2705 452.643 65.4367 448.191 66.392C436.9 68.8144 431.23 69.9522 419.888 72.0968C415.394 72.9607 412.542 77.2768 413.517 81.7824ZM421.096 82.5803C420.578 80.2482 422.05 78.0015 424.38 77.5608C433.239 75.8647 437.672 74.9733 446.497 73.0993C448.818 72.6141 451.162 74.0872 451.732 76.4023C452.268 78.5502 452.523 79.6229 453.058 81.7708C453.629 84.0859 452.19 86.3794 449.855 86.8743C440.928 88.7608 436.456 89.6595 427.494 91.3788C425.138 91.828 422.812 90.3018 422.294 87.9697C421.821 85.8277 421.579 84.7452 421.096 82.5803Z" fill="#67759C"/>
<path d="M450.872 83.2524C463.116 80.6447 469.227 79.2633 481.411 76.3441C483.429 75.8636 484.615 73.8418 484.065 71.8457C483.516 69.8495 481.454 68.6209 479.449 69.1025C467.341 72.007 461.27 73.3811 449.09 75.9728C447.078 76.3991 445.833 78.3718 446.318 80.3838C446.802 82.3958 448.846 83.6883 450.872 83.2524Z" fill="#566282"/>
<path d="M359.537 90.3741C360.203 94.2609 360.53 96.1929 361.196 100.08C361.978 104.622 366.341 107.79 370.955 107.134C382.619 105.467 388.445 104.562 400.072 102.608C404.659 101.84 407.611 97.5331 406.675 93.0093C405.868 89.1532 405.465 87.2143 404.67 83.3593C403.733 78.8464 399.331 75.828 394.836 76.5715C383.453 78.4827 377.743 79.3655 366.309 80.9988C361.784 81.6522 358.755 85.8318 359.537 90.3741ZM367.072 91.5068C366.656 89.1623 368.223 86.9899 370.569 86.6491C379.505 85.3427 383.959 84.6499 392.859 83.1872C395.197 82.8018 397.48 84.3788 397.947 86.7171C398.38 88.8773 398.608 89.9695 399.041 92.1298C399.508 94.4681 397.988 96.6885 395.612 97.0704C386.609 98.5563 382.104 99.2553 373.065 100.574C370.693 100.923 368.44 99.2947 368.025 96.9393C367.657 94.7632 367.467 93.6745 367.072 91.5068Z" fill="#67759C"/>
<path d="M396.802 93.4969C409.147 91.445 415.308 90.3414 427.606 87.9683C429.641 87.5768 430.909 85.6174 430.45 83.6076C429.991 81.5871 427.975 80.2752 425.953 80.6678C413.731 83.0262 407.61 84.1224 395.33 86.1585C393.3 86.4957 391.973 88.4061 392.38 90.4328C392.775 92.4584 394.76 93.833 396.802 93.4969Z" fill="#566282"/>
<path d="M305.199 96.5392C305.698 100.443 305.949 102.39 306.436 106.293C307.015 110.85 311.245 114.213 315.878 113.766C327.62 112.62 333.473 111.969 345.178 110.547C349.796 109.99 352.938 105.82 352.194 101.271C351.553 97.3862 351.239 95.4445 350.599 91.5601C349.854 87.0212 345.584 83.8073 341.056 84.362C329.593 85.7631 323.843 86.3909 312.356 87.5164C307.839 87.941 304.621 91.9721 305.199 96.5392ZM312.704 97.9971C312.39 95.6401 314.051 93.542 316.413 93.301C325.401 92.4037 329.886 91.9106 338.852 90.8365C341.205 90.551 343.416 92.2305 343.78 94.5812C344.124 96.755 344.301 97.8534 344.644 100.027C345.021 102.379 343.394 104.524 341.015 104.807C331.948 105.883 327.412 106.382 318.334 107.293C315.947 107.532 313.766 105.811 313.44 103.453C313.135 101.272 312.995 100.188 312.704 97.9971Z" fill="#67759C"/>
<path d="M342.326 101.3C354.758 99.8024 360.956 98.9756 373.343 97.157C375.395 96.8546 376.746 94.9574 376.376 92.9341C376.007 90.9 374.049 89.506 372.011 89.7988C359.702 91.6026 353.53 92.4209 341.173 93.9144C339.127 94.1626 337.729 96.0118 338.034 98.051C338.352 100.091 340.266 101.547 342.326 101.3Z" fill="#566282"/>
<path d="M250.604 100.276C250.939 104.187 251.099 106.147 251.421 110.057C251.809 114.628 255.896 118.175 260.548 117.927C272.344 117.3 278.223 116.914 289.994 116.011C294.644 115.653 297.962 111.632 297.409 107.067C296.935 103.165 296.71 101.21 296.236 97.3076C295.683 92.7428 291.556 89.3562 287.009 89.7015C275.48 90.5828 269.716 90.9579 258.161 91.5745C253.609 91.8319 250.229 95.7059 250.604 100.276ZM258.039 102.077C257.828 99.708 259.582 97.695 261.947 97.5635C270.974 97.0633 275.479 96.7687 284.495 96.1037C286.864 95.9289 289.003 97.6893 289.266 100.052C289.519 102.24 289.646 103.334 289.887 105.52C290.162 107.884 288.441 109.944 286.047 110.127C276.94 110.806 272.373 111.095 263.256 111.608C260.866 111.738 258.744 109.924 258.533 107.555C258.343 105.362 258.242 104.271 258.039 102.077Z" fill="#67759C"/>
<path d="M287.529 106.679C300.024 105.734 306.26 105.184 318.722 103.919C320.777 103.715 322.224 101.881 321.932 99.8326C321.64 97.7946 319.753 96.3089 317.698 96.5127C305.313 97.763 299.103 98.3155 286.683 99.2567C284.632 99.4171 283.14 101.192 283.368 103.246C283.596 105.3 285.452 106.837 287.529 106.679Z" fill="#566282"/>
<path d="M195.827 101.603C195.984 105.519 196.068 107.483 196.225 111.4C196.41 115.974 200.355 119.694 205.014 119.643C216.837 119.543 222.755 119.422 234.554 119.036C239.21 118.887 242.703 115.023 242.354 110.444C242.058 106.526 241.897 104.577 241.601 100.658C241.252 96.0795 237.267 92.5203 232.7 92.6671C221.13 93.0418 215.338 93.163 203.756 93.2633C199.185 93.3114 195.629 97.027 195.827 101.603ZM203.182 103.724C203.072 101.354 204.907 99.4245 207.288 99.3929C216.341 99.2886 220.866 99.1925 229.909 98.9234C232.281 98.8473 234.348 100.71 234.509 103.075C234.662 105.264 234.75 106.365 234.902 108.554C235.075 110.92 233.261 112.905 230.863 112.979C221.718 113.25 217.144 113.341 207.989 113.447C205.583 113.477 203.545 111.573 203.435 109.202C203.334 107.017 203.283 105.92 203.182 103.724Z" fill="#67759C"/>
<path d="M232.489 109.621C245.034 109.227 251.295 108.952 263.807 108.249C265.879 108.134 267.395 106.373 267.192 104.321C266.989 102.269 265.16 100.713 263.1 100.828C250.653 101.527 244.429 101.805 231.96 102.195C229.892 102.255 228.33 103.969 228.469 106.026C228.623 108.062 230.409 109.68 232.489 109.621Z" fill="#566282"/>
<path d="M140.919 100.513C140.912 104.425 140.908 106.381 140.901 110.293C140.896 114.872 144.675 118.74 149.352 118.909C161.191 119.325 167.122 119.468 178.948 119.608C183.623 119.668 187.279 115.962 187.132 111.391C187 107.477 186.928 105.514 186.796 101.6C186.637 97.0166 182.807 93.2859 178.233 93.2353C166.635 93.0937 160.841 92.9633 149.243 92.5485C144.654 92.3872 140.936 95.9349 140.919 100.513ZM148.207 102.945C148.199 100.573 150.127 98.7287 152.498 98.8055C161.564 99.1068 166.096 99.2082 175.165 99.3458C177.54 99.3792 179.523 101.322 179.596 103.689C179.659 105.881 179.684 106.976 179.747 109.179C179.819 111.546 177.911 113.447 175.511 113.411C166.353 113.276 161.759 113.169 152.604 112.871C150.195 112.79 148.242 110.796 148.232 108.434C148.22 106.236 148.207 105.142 148.207 102.945Z" fill="#67759C"/>
<path d="M177.282 110.121C189.852 110.287 196.138 110.288 208.687 110.134C210.764 110.108 212.362 108.419 212.248 106.365C212.134 104.31 210.375 102.672 208.311 102.7C195.826 102.849 189.589 102.852 177.083 102.682C175.011 102.654 173.38 104.296 173.431 106.345C173.481 108.404 175.197 110.092 177.282 110.121Z" fill="#566282"/>
<path d="M85.9952 96.984C85.8116 100.891 85.7329 102.84 85.5504 106.736C85.3444 111.296 88.957 115.324 93.6401 115.701C105.481 116.641 111.414 117.047 123.255 117.703C127.937 117.96 131.753 114.443 131.796 109.868C131.828 105.958 131.856 104.004 131.889 100.084C131.932 95.5081 128.256 91.6167 123.676 91.3579C112.074 90.7132 106.266 90.3192 94.6647 89.3904C90.0925 89.0449 86.2011 92.4236 85.9952 96.984ZM93.1786 99.7346C93.2703 97.3714 95.2794 95.6114 97.6654 95.7988C106.734 96.4938 111.271 96.8033 120.342 97.3346C122.719 97.4775 124.619 99.5 124.59 101.869C124.552 104.062 124.54 105.154 124.502 107.347C124.461 109.715 122.485 111.522 120.082 111.388C110.911 110.847 106.322 110.544 97.1536 109.84C94.7425 109.65 92.8713 107.586 92.9629 105.223C93.0521 103.024 93.0905 101.923 93.1786 99.7346Z" fill="#67759C"/>
<path d="M121.997 108.176C134.579 108.9 140.865 109.175 153.438 109.581C155.519 109.653 157.186 108.036 157.161 105.979C157.136 103.922 155.447 102.214 153.379 102.144C140.881 101.744 134.621 101.461 122.114 100.744C120.05 100.63 118.338 102.188 118.288 104.238C118.262 106.301 119.908 108.06 121.997 108.176Z" fill="#566282"/>
<path d="M31.1173 91.0443C30.7717 94.9252 30.5916 96.8759 30.246 100.757C29.8395 105.299 33.299 109.476 37.9631 110.06C49.7936 111.523 55.7148 112.19 67.5462 113.369C72.2213 113.834 76.2101 110.497 76.4421 105.928C76.6507 102.024 76.7545 100.077 76.9631 96.1724C77.2067 91.6154 73.6839 87.5742 69.1102 87.1083C57.5171 85.9508 51.7212 85.2956 40.128 83.8648C35.5633 83.3014 31.5238 86.5024 31.1173 91.0443ZM38.1965 94.1023C38.3885 91.7483 40.4774 90.0831 42.8543 90.3681C51.9106 91.4663 56.4427 91.9721 65.5013 92.9066C67.8823 93.1483 69.6994 95.2505 69.5575 97.6091C69.4317 99.7943 69.3693 100.881 69.2435 103.067C69.1017 105.425 67.0454 107.148 64.6404 106.893C55.4813 105.95 50.8991 105.439 41.7425 104.332C39.3405 104.044 37.5535 101.89 37.7455 99.5363C37.9205 97.3665 38.0205 96.2828 38.1965 94.1023Z" fill="#67759C"/>
<path d="M66.6973 103.793C79.2667 105.063 85.5521 105.621 98.1369 106.586C100.222 106.746 101.957 105.212 102.032 103.164C102.095 101.115 100.476 99.3372 98.4033 99.1787C85.8937 98.2208 79.6459 97.6659 67.1518 96.4034C65.0844 96.1907 63.3029 97.6766 63.1775 99.7197C63.0407 101.751 64.6164 103.59 66.6973 103.793Z" fill="#566282"/>
<path d="M-23.637 82.6677C-24.1571 86.5215 -24.4114 88.4544 -24.9326 92.319C-25.5388 96.8316 -22.2573 101.156 -17.5987 101.936C-5.80369 103.921 0.0935432 104.848 11.9136 106.562C16.5822 107.233 20.719 104.074 21.1506 99.5346C21.5213 95.6561 21.7129 93.7174 22.0845 89.828C22.5288 85.2896 19.1715 81.0998 14.6032 80.4376C3.03306 78.7576 -2.7523 77.852 -14.311 75.9107C-18.8442 75.1425 -23.0307 78.1551 -23.637 82.6677ZM-16.6745 86.0318C-16.3707 83.6991 -14.2145 82.1275 -11.835 82.522C-2.80326 84.0224 1.71084 84.7232 10.7576 86.0611C13.1285 86.4111 14.8624 88.5931 14.6212 90.9315C14.3951 93.1075 14.2825 94.19 14.0689 96.3671C13.8267 98.7165 11.6916 100.334 9.28306 99.9802C0.135972 98.6331 -4.4273 97.9168 -13.5594 96.4072C-15.9514 96.0115 -17.6561 93.7885 -17.3638 91.4438C-17.0885 89.2833 -16.9508 88.2031 -16.6745 86.0318Z" fill="#67759C"/>
<path d="M11.4835 96.9701C24.0269 98.7947 30.2989 99.6359 42.8713 101.146C44.9482 101.393 46.7643 99.9426 46.9148 97.9017C47.0652 95.8609 45.5281 94.014 43.4512 93.7677C30.9666 92.2655 24.7197 91.4266 12.2515 89.609C10.1921 89.3096 8.34339 90.7019 8.11771 92.7358C7.90457 94.7709 9.41157 96.6696 11.4835 96.9701Z" fill="#566282"/>
</svg>
