<svg width="597" height="136" viewBox="0 0 597 136" fill="none" xmlns="http://www.w3.org/2000/svg">
<path d="M38.666 37.7198C29.5646 33.8983 25.0296 31.9327 16.0221 27.8783C12.4673 26.2763 8.11345 27.9645 6.30163 31.6684C4.7468 34.8405 3.97478 36.426 2.41887 39.5886C0.607046 43.2925 2.06809 47.6438 5.69305 49.2863C14.8956 53.4251 19.5234 55.4384 28.8081 59.3359C32.4763 60.8769 36.8258 59.0537 38.5212 55.2856C39.9617 52.0683 40.6874 50.459 42.1279 47.2416C43.8125 43.4747 42.2543 39.231 38.666 37.7198ZM33.5538 51.1253C32.6694 53.0715 30.4257 54.0005 28.5333 53.1979C21.3437 50.1575 17.7726 48.6057 10.6423 45.4136C8.76835 44.5799 8.01362 42.3345 8.93359 40.4133C9.79308 38.6342 10.2282 37.7441 11.0877 35.9651C12.0185 34.0427 14.2676 33.1614 16.1189 33.988C23.1683 37.1408 26.7157 38.676 33.8138 41.6783C35.6823 42.4642 36.477 44.6762 35.5926 46.6224C34.7913 48.4336 34.3788 49.3308 33.5538 51.1253Z" fill="#67759C"/>
<path d="M85.0308 55.812C75.7523 52.4553 71.1341 50.7214 61.9398 47.1424C58.3072 45.7232 54.0417 47.6142 52.3916 51.3966C50.9856 54.6294 50.2707 56.2375 48.8647 59.4703C47.2135 63.2431 48.872 67.5045 52.5736 68.9547C61.9631 72.6181 66.6729 74.39 76.1444 77.8121C79.8785 79.162 84.1505 77.1348 85.6755 73.3085C86.9791 70.0388 87.625 68.3999 88.9286 65.1302C90.4407 61.286 88.6862 57.1417 85.0308 55.812ZM80.5193 69.4111C79.7255 71.3858 77.5161 72.427 75.5914 71.7247C68.2689 69.057 64.62 67.6879 57.3461 64.8698C55.4387 64.1269 54.5706 61.9425 55.4205 59.9808C56.1991 58.1626 56.589 57.2582 57.3687 55.4495C58.2078 53.489 60.4236 52.5051 62.3073 53.2314C69.5004 56.0103 73.1039 57.3651 80.3477 60.0126C82.2498 60.7078 83.147 62.8599 82.3532 64.8345C81.6306 66.6659 81.2634 67.5774 80.5193 69.4111Z" fill="#67759C"/>
<path d="M57.0503 61.5575C47.0797 57.679 42.1252 55.6734 32.2561 51.5322C30.6279 50.8449 29.9312 48.9217 30.7033 47.2395C31.4754 45.5573 33.4171 44.759 35.0334 45.4379C44.8454 49.5566 49.7762 51.5454 59.6896 55.4013C61.334 56.0384 62.0706 57.9282 61.3546 59.6234C60.6289 61.3293 58.7054 62.1933 57.0503 61.5575Z" fill="#566282"/>
<path d="M129.009 70.5467C119.583 67.6319 114.892 66.119 105.549 62.9724C101.861 61.7336 97.6705 63.8095 96.1682 67.643C94.8872 70.9197 94.2532 72.5671 92.9722 75.8438C91.4806 79.6761 93.3138 83.8405 97.0825 85.1091C106.629 88.3198 111.412 89.8708 121.04 92.8401C124.842 94.0179 129.027 91.7976 130.382 87.913C131.548 84.5911 132.127 82.9403 133.283 79.6195C134.651 75.7529 132.72 71.696 129.009 70.5467ZM125.07 84.2845C124.356 86.2889 122.19 87.4219 120.242 86.8092C112.805 84.4832 109.088 83.2861 101.702 80.8287C99.7611 80.1766 98.811 78.0401 99.5703 76.0499C100.281 74.2103 100.626 73.2916 101.335 71.4424C102.095 69.4523 104.266 68.367 106.184 69.012C113.492 71.4493 117.164 72.6321 124.521 74.9284C126.456 75.5328 127.446 77.6358 126.732 79.6402C126.068 81.5036 125.735 82.4306 125.07 84.2845Z" fill="#67759C"/>
<path d="M101.256 77.5428C91.1214 74.1469 86.0729 72.3743 76.0278 68.7073C74.3651 68.1013 73.5853 66.2164 74.2894 64.5128C74.9936 62.8093 76.9031 61.9179 78.5539 62.5155C88.5419 66.16 93.5559 67.9171 103.635 71.3C105.303 71.8571 106.122 73.7085 105.475 75.4346C104.828 77.1607 102.936 78.1082 101.256 77.5428Z" fill="#566282"/>
<path d="M173.638 83.2063C164.088 80.7311 159.322 79.4391 149.833 76.7345C146.087 75.6664 141.983 77.9261 140.651 81.8178C139.507 85.1468 138.94 86.806 137.806 90.1243C136.474 94.0159 138.481 98.0738 142.306 99.1621C151.987 101.922 156.853 103.242 166.607 105.772C170.454 106.77 174.553 104.366 175.75 100.441C176.771 97.0873 177.281 95.4056 178.313 92.0504C179.499 88.1268 177.407 84.1848 173.638 83.2063ZM170.281 97.0625C169.645 99.0871 167.534 100.32 165.553 99.7984C158.013 97.8223 154.251 96.8044 146.739 94.6802C144.765 94.1284 143.721 92.0315 144.402 90.0212C145.033 88.1518 145.344 87.2273 145.975 85.3579C146.655 83.3476 148.783 82.1609 150.724 82.7163C158.146 84.812 161.864 85.8252 169.324 87.7716C171.282 88.2864 172.365 90.3403 171.73 92.3648C171.155 94.2472 170.857 95.1896 170.281 97.0625Z" fill="#67759C"/>
<path d="M146.167 91.4377C135.877 88.5136 130.759 86.9906 120.559 83.7954C118.872 83.2694 118.011 81.4324 118.646 79.6979C119.281 77.9634 121.148 76.9897 122.824 77.5169C132.967 80.6896 138.064 82.215 148.285 85.1177C149.977 85.5947 150.879 87.3982 150.3 89.1457C149.71 90.8945 147.86 91.9242 146.167 91.4377Z" fill="#566282"/>
<path d="M218.854 93.7891C209.178 91.7629 204.361 90.6895 194.747 88.4245C190.954 87.526 186.937 89.9693 185.762 93.9013C184.764 97.2624 184.264 98.9429 183.255 102.305C182.081 106.237 184.272 110.187 188.142 111.096C197.958 113.406 202.877 114.507 212.753 116.569C216.645 117.388 220.659 114.81 221.689 110.856C222.575 107.469 223.018 105.775 223.894 102.389C224.944 98.4227 222.679 94.5873 218.854 93.7891ZM216.074 107.735C215.528 109.779 213.46 111.104 211.456 110.671C203.814 109.045 200.005 108.197 192.402 106.431C190.406 105.969 189.27 103.93 189.861 101.901C190.413 100.012 190.69 99.0717 191.231 97.1834C191.821 95.1446 193.907 93.8756 195.88 94.3307C203.394 96.0776 207.17 96.92 214.722 98.5272C216.703 98.9524 217.877 100.938 217.332 102.991C216.836 104.894 216.582 105.841 216.074 107.735Z" fill="#67759C"/>
<path d="M191.693 103.233C181.272 100.788 176.082 99.5048 165.728 96.791C164.018 96.345 163.085 94.5547 163.642 92.8001C164.198 91.0454 166.034 89.9882 167.734 90.4354C178.02 93.1374 183.187 94.4132 193.542 96.8465C195.257 97.2435 196.241 98.9991 195.73 100.768C195.229 102.526 193.419 103.629 191.693 103.233Z" fill="#566282"/>
<path d="M264.599 102.282C254.821 100.702 249.952 99.8475 240.224 98.0303C236.386 97.3109 232.463 99.9177 231.457 103.889C230.593 107.283 230.171 108.974 229.308 112.368C228.301 116.34 230.655 120.175 234.581 120.904C244.51 122.756 249.479 123.629 259.468 125.243C263.406 125.883 267.313 123.133 268.176 119.149C268.918 115.739 269.282 114.026 270.024 110.616C270.886 106.623 268.458 102.902 264.599 102.282ZM262.406 116.297C261.949 118.36 259.923 119.767 257.898 119.434C250.175 118.165 246.32 117.486 238.637 116.077C236.618 115.705 235.392 113.735 235.903 111.676C236.378 109.775 236.609 108.821 237.084 106.921C237.595 104.862 239.626 103.502 241.624 103.878C249.229 105.276 253.039 105.94 260.673 107.2C262.676 107.526 263.931 109.464 263.475 111.526C263.045 113.431 262.835 114.383 262.406 116.297Z" fill="#67759C"/>
<path d="M237.789 112.904C227.248 110.946 221.996 109.893 211.511 107.658C209.777 107.292 208.762 105.55 209.25 103.774C209.739 101.998 211.523 100.869 213.247 101.236C223.665 103.459 228.882 104.497 239.368 106.452C241.097 106.77 242.162 108.477 241.729 110.257C241.296 112.046 239.529 113.231 237.789 112.904Z" fill="#566282"/>
<path d="M310.785 108.675C300.915 107.541 295.995 106.914 286.175 105.543C282.303 105.001 278.485 107.77 277.646 111.771C276.927 115.188 276.572 116.891 275.853 120.307C275.013 124.298 277.539 128.018 281.5 128.568C291.52 129.976 296.55 130.609 306.619 131.769C310.592 132.232 314.393 129.32 315.089 125.306C315.686 121.874 315.985 120.158 316.582 116.726C317.278 112.713 314.679 109.118 310.785 108.675ZM309.186 122.73C308.818 124.802 306.846 126.3 304.809 126.055C297.016 125.133 293.127 124.641 285.363 123.58C283.321 123.297 282.015 121.394 282.438 119.326C282.834 117.405 283.022 116.456 283.418 114.536C283.841 112.467 285.818 111.017 287.826 111.294C295.502 112.346 299.348 112.842 307.062 113.745C309.087 113.981 310.422 115.852 310.055 117.924C309.714 119.848 309.537 120.805 309.186 122.73Z" fill="#67759C"/>
<path d="M284.379 120.461C273.728 118.989 268.416 118.175 257.833 116.424C256.086 116.137 254.99 114.452 255.401 112.666C255.811 110.879 257.554 109.668 259.301 109.955C269.828 111.692 275.107 112.501 285.692 113.971C287.444 114.209 288.569 115.861 288.213 117.652C287.857 119.442 286.132 120.709 284.379 120.461Z" fill="#566282"/>
<path d="M357.368 112.965C347.428 112.273 342.468 111.874 332.567 110.946C328.66 110.583 324.948 113.514 324.275 117.534C323.699 120.964 323.412 122.688 322.837 126.118C322.163 130.138 324.848 133.714 328.843 134.087C338.954 135.03 344.014 135.447 354.162 136.144C358.169 136.419 361.844 133.357 362.374 129.333C362.828 125.888 363.05 124.171 363.504 120.726C364.056 116.69 361.296 113.229 357.368 112.965ZM356.371 127.029C356.08 129.112 354.183 130.688 352.124 130.543C344.273 129.974 340.349 129.661 332.525 128.945C330.473 128.76 329.075 126.915 329.41 124.838C329.718 122.918 329.872 121.953 330.19 120.022C330.524 117.944 332.449 116.413 334.48 116.6C342.226 117.306 346.106 117.614 353.868 118.173C355.905 118.321 357.331 120.124 357.041 122.206C356.766 124.132 356.634 125.095 356.371 127.029Z" fill="#67759C"/>
<path d="M331.385 125.892C320.647 124.904 315.297 124.335 304.604 123.071C302.833 122.864 301.678 121.234 302.011 119.437C302.345 117.639 304.046 116.356 305.795 116.565C316.422 117.827 321.75 118.388 332.422 119.374C334.187 119.534 335.393 121.129 335.104 122.931C334.836 124.721 333.161 126.05 331.385 125.892Z" fill="#566282"/>
<path d="M404.269 115.129C394.27 114.89 389.271 114.717 379.3 114.242C375.369 114.055 371.774 117.147 371.265 121.169C370.833 124.611 370.622 126.336 370.19 129.779C369.693 133.809 372.537 137.251 376.556 137.447C386.736 137.937 391.835 138.118 402.041 138.354C406.071 138.452 409.63 135.229 409.995 131.194C410.307 127.746 410.451 126.018 410.763 122.57C411.13 118.545 408.223 115.227 404.269 115.129ZM403.861 129.186C403.659 131.278 401.824 132.925 399.742 132.869C391.845 132.663 387.896 132.517 380.015 132.165C377.94 132.07 376.474 130.301 376.72 128.214C376.951 126.283 377.06 125.313 377.291 123.382C377.537 121.295 379.4 119.694 381.441 119.783C389.235 120.135 393.139 120.277 400.95 120.482C402.998 120.532 404.503 122.268 404.311 124.349C404.136 126.283 404.048 127.25 403.861 129.186Z" fill="#67759C"/>
<path d="M378.761 129.173C367.946 128.668 362.558 128.345 351.789 127.563C350.005 127.435 348.769 125.863 349.035 124.053C349.291 122.246 350.942 120.9 352.715 121.029C363.418 121.809 368.784 122.124 379.533 122.628C381.311 122.708 382.586 124.238 382.385 126.04C382.173 127.852 380.551 129.262 378.761 129.173Z" fill="#566282"/>
<path d="M451.424 115.177C441.379 115.397 436.36 115.439 426.331 115.415C422.376 115.405 418.896 118.649 418.573 122.678C418.295 126.133 418.15 127.851 417.861 131.306C417.527 135.337 420.531 138.645 424.574 138.654C434.811 138.684 439.938 138.63 450.19 138.406C454.243 138.318 457.677 134.954 457.868 130.92C458.026 127.469 458.106 125.749 458.264 122.298C458.456 118.274 455.391 115.099 451.424 115.177ZM451.623 129.194C451.52 131.285 449.737 133.013 447.655 133.053C439.721 133.201 435.75 133.241 427.821 133.242C425.735 133.245 424.179 131.544 424.337 129.457C424.481 127.526 424.558 126.56 424.711 124.619C424.87 122.532 426.668 120.85 428.721 120.842C436.563 120.841 440.48 120.806 448.338 120.658C450.398 120.62 451.981 122.27 451.877 124.36C451.767 126.297 451.722 127.259 451.623 129.194Z" fill="#67759C"/>
<path d="M426.432 130.314C415.563 130.298 410.137 130.221 399.303 129.93C397.506 129.881 396.201 128.374 396.391 126.564C396.57 124.755 398.169 123.337 399.954 123.379C410.733 123.666 416.127 123.746 426.93 123.76C428.721 123.762 430.065 125.226 429.93 127.03C429.784 128.845 428.224 130.316 426.432 130.314Z" fill="#566282"/>
<path d="M498.766 113.096C488.684 113.765 483.647 114.041 473.581 114.466C469.602 114.633 466.258 118.016 466.1 122.046C465.963 125.494 465.895 127.223 465.758 130.671C465.6 134.701 468.761 137.856 472.815 137.681C483.087 137.242 488.233 136.964 498.521 136.281C502.586 136.008 505.894 132.503 505.912 128.479C505.929 125.035 505.932 123.314 505.95 119.879C505.957 115.856 502.744 112.833 498.766 113.096ZM499.557 127.037C499.54 129.118 497.821 130.926 495.738 131.053C487.768 131.562 483.794 131.777 475.84 132.139C473.753 132.228 472.119 130.614 472.19 128.527C472.257 126.595 472.29 125.624 472.358 123.702C472.43 121.615 474.165 119.854 476.23 119.767C484.098 119.415 488.038 119.194 495.911 118.696C497.982 118.56 499.645 120.143 499.617 122.225C499.581 124.143 499.581 125.11 499.557 127.037Z" fill="#67759C"/>
<path d="M474.319 129.293C463.408 129.775 457.955 129.943 447.065 130.132C445.266 130.16 443.892 128.719 443.994 126.909C444.097 125.099 445.644 123.61 447.432 123.583C458.256 123.392 463.676 123.218 474.522 122.744C476.316 122.668 477.729 124.066 477.68 125.87C477.622 127.684 476.123 129.216 474.319 129.293Z" fill="#566282"/>
<path d="M546.227 108.874C536.131 109.999 531.076 110.5 520.986 111.392C517.006 111.742 513.786 115.256 513.801 119.277C513.816 122.718 513.813 124.439 513.828 127.88C513.843 131.9 517.15 134.894 521.218 134.543C531.524 133.636 536.676 133.125 546.989 131.975C551.055 131.518 554.229 127.884 554.072 123.869C553.938 120.442 553.877 118.728 553.743 115.301C553.576 111.288 550.218 108.426 546.227 108.874ZM547.619 122.719C547.688 124.79 546.043 126.667 543.949 126.893C535.964 127.761 531.979 128.16 524 128.883C521.902 129.07 520.189 127.532 520.174 125.455C520.155 123.533 520.145 122.567 520.135 120.634C520.12 118.557 521.782 116.727 523.846 116.533C531.739 115.821 535.681 115.426 543.569 114.568C545.641 114.345 547.381 115.832 547.451 117.913C547.525 119.838 547.557 120.802 547.619 122.719Z" fill="#67759C"/>
<path d="M522.357 126.119C511.413 127.087 505.955 127.507 495.023 128.194C493.213 128.311 491.78 126.934 491.806 125.123C491.833 123.322 493.318 121.763 495.119 121.657C505.985 120.968 511.422 120.56 522.29 119.59C524.084 119.427 525.566 120.759 525.593 122.554C525.611 124.361 524.162 125.954 522.357 126.119Z" fill="#566282"/>
<path d="M593.742 102.5C583.642 104.08 578.591 104.812 568.487 106.16C564.494 106.686 561.42 110.338 561.597 114.341C561.753 117.766 561.836 119.478 561.991 122.902C562.179 126.904 565.621 129.737 569.7 129.201C580.009 127.83 585.168 127.085 595.482 125.472C599.55 124.831 602.588 121.057 602.261 117.081C601.976 113.671 601.84 111.975 601.555 108.564C601.227 104.569 597.724 101.879 593.742 102.5ZM595.731 116.219C595.887 118.281 594.314 120.227 592.221 120.549C584.233 121.776 580.246 122.359 572.264 123.44C570.166 123.724 568.386 122.271 568.273 120.195C568.178 118.281 568.125 117.32 568.029 115.397C567.917 113.331 569.516 111.43 571.592 111.149C579.488 110.077 583.433 109.508 591.335 108.292C593.407 107.972 595.213 109.374 595.38 111.444C595.508 113.354 595.583 114.312 595.731 116.219Z" fill="#67759C"/>
<path d="M570.488 120.758C559.534 122.221 554.06 122.885 543.118 124.066C541.305 124.26 539.804 122.959 539.755 121.156C539.705 119.354 541.13 117.743 542.932 117.55C553.82 116.375 559.261 115.715 570.151 114.26C571.948 114.019 573.497 115.266 573.6 117.063C573.682 118.862 572.295 120.516 570.488 120.758Z" fill="#566282"/>
</svg>
